<svg xmlns="http://www.w3.org/2000/svg" viewBox="0 0 800 500">
  <defs>
    <linearGradient id="bg" x1="0" y1="0" x2="1" y2="1">
      <stop offset="0%" stop-color="#ecfeff"/>
      <stop offset="50%" stop-color="#e0f2fe"/>
      <stop offset="100%" stop-color="#eff6ff"/>
    </linearGradient>
    <linearGradient id="cyanGrad" x1="0" y1="0" x2="1" y2="1">
      <stop offset="0%" stop-color="#06b6d4"/>
      <stop offset="100%" stop-color="#3b82f6"/>
    </linearGradient>
    <linearGradient id="barPos" x1="0" y1="0" x2="1" y2="0">
      <stop offset="0%" stop-color="#22d3ee"/>
      <stop offset="100%" stop-color="#06b6d4"/>
    </linearGradient>
    <linearGradient id="barNeg" x1="0" y1="0" x2="1" y2="0">
      <stop offset="0%" stop-color="#f87171"/>
      <stop offset="100%" stop-color="#f43f5e"/>
    </linearGradient>
    <radialGradient id="glow1" cx="50%" cy="50%" r="50%">
      <stop offset="0%" stop-color="#a5f3fc" stop-opacity="0.55"/>
      <stop offset="100%" stop-color="#a5f3fc" stop-opacity="0"/>
    </radialGradient>
    <filter id="s1"><feDropShadow dx="0" dy="4" stdDeviation="10" flood-color="#06b6d4" flood-opacity="0.1"/></filter>
    <filter id="s2"><feDropShadow dx="0" dy="2" stdDeviation="6"  flood-color="#000"    flood-opacity="0.06"/></filter>
  </defs>

  <rect width="800" height="500" fill="url(#bg)"/>

  <!-- Soft orbs -->
  <circle cx="660" cy="80"  r="150" fill="url(#glow1)"/>
  <circle cx="100" cy="420" r="110" fill="#bae6fd" opacity="0.22"/>

  <!-- ── Sidebar ── -->
  <rect x="18" y="18" width="64" height="464" rx="22" fill="white" opacity="0.72" filter="url(#s2)"/>
  <rect x="28" y="44"  width="44" height="44" rx="14" fill="#ecfeff"/>
  <!-- newspaper icon -->
  <rect x="36" y="52" width="28" height="28" rx="4" fill="none" stroke="#06b6d4" stroke-width="2" opacity="0.7"/>
  <line x1="40" y1="60" x2="60" y2="60" stroke="#06b6d4" stroke-width="1.5" opacity="0.7"/>
  <line x1="40" y1="66" x2="60" y2="66" stroke="#06b6d4" stroke-width="1.5" opacity="0.7"/>
  <line x1="40" y1="72" x2="52" y2="72" stroke="#06b6d4" stroke-width="1.5" opacity="0.7"/>

  <!-- active: chart icon -->
  <rect x="28" y="98"  width="44" height="44" rx="14" fill="url(#cyanGrad)" filter="url(#s1)"/>
  <rect x="37" y="122" width="5" height="10" rx="2" fill="white"/>
  <rect x="46" y="116" width="5" height="16" rx="2" fill="white"/>
  <rect x="55" y="110" width="5" height="22" rx="2" fill="white"/>

  <rect x="28" y="152" width="44" height="44" rx="14" fill="#ecfeff"/>
  <circle cx="50" cy="166" r="6" fill="#06b6d4" opacity="0.6"/>
  <path d="M38,188 Q38,178 50,178 Q62,178 62,188" fill="#06b6d4" opacity="0.6"/>

  <rect x="28" y="206" width="44" height="44" rx="14" fill="#ecfeff"/>
  <circle cx="50" cy="228" r="8" fill="none" stroke="#06b6d4" stroke-width="2" opacity="0.6"/>
  <circle cx="50" cy="228" r="3" fill="#06b6d4" opacity="0.6"/>

  <!-- ── Main headlines panel ── -->
  <rect x="100" y="18" width="420" height="464" rx="26" fill="white" opacity="0.70" filter="url(#s2)"/>

  <text x="126" y="55"  font-family="system-ui,sans-serif" font-size="15" font-weight="700" fill="#0c1a2e" opacity="0.85">Today's Intelligence</text>
  <text x="126" y="71"  font-family="system-ui,sans-serif" font-size="9"  fill="#06b6d4" letter-spacing="2">VERITAS AI · LIVE FEED</text>

  <!-- Lead story -->
  <rect x="116" y="84"  width="406" height="86" rx="16" fill="#ecfeff" stroke="#a5f3fc" stroke-width="1"/>
  <rect x="116" y="84"  width="5"   height="86" rx="2" fill="url(#cyanGrad)"/>
  <text x="134" y="102" font-family="system-ui,sans-serif" font-size="9" font-weight="700" fill="#06b6d4" letter-spacing="2">⬆ LEAD STORY</text>
  <text x="134" y="118" font-family="system-ui,sans-serif" font-size="13" font-weight="700" fill="#0c1a2e" opacity="0.85">AI Regulation Framework Gains</text>
  <text x="134" y="133" font-family="system-ui,sans-serif" font-size="13" font-weight="700" fill="#0c1a2e" opacity="0.85">EU Parliament Endorsement</text>
  <text x="134" y="153" font-family="system-ui,sans-serif" font-size="9"  fill="#64748b">Reuters · 1h ago</text>
  <rect x="360" y="144" width="72" height="18" rx="9" fill="#dcfce7" stroke="#86efac" stroke-width="1"/>
  <text x="396" y="156" text-anchor="middle" font-family="system-ui,sans-serif" font-size="8" font-weight="600" fill="#16a34a">POSITIVE</text>

  <!-- Story 2 -->
  <rect x="116" y="180" width="406" height="68" rx="16" fill="white" stroke="#e0f2fe" stroke-width="1"/>
  <rect x="116" y="180" width="5"   height="68" rx="2" fill="#22d3ee"/>
  <text x="134" y="200" font-family="system-ui,sans-serif" font-size="12" font-weight="600" fill="#0c1a2e" opacity="0.8">Nvidia Q4 Earnings Beat Expectations by 18%</text>
  <text x="134" y="218" font-family="system-ui,sans-serif" font-size="9"  fill="#64748b">Bloomberg · 3h ago</text>
  <rect x="356" y="208" width="72" height="18" rx="9" fill="#dcfce7" stroke="#86efac" stroke-width="1"/>
  <text x="392" y="220" text-anchor="middle" font-family="system-ui,sans-serif" font-size="8" font-weight="600" fill="#16a34a">BULLISH</text>
  <text x="134" y="238" font-family="system-ui,sans-serif" font-size="9"  fill="#94a3b8" opacity="0.7">Chip demand surges as data centres expand capacity globally across all regions…</text>

  <!-- Story 3 -->
  <rect x="116" y="258" width="406" height="68" rx="16" fill="white" stroke="#e0f2fe" stroke-width="1"/>
  <rect x="116" y="258" width="5"   height="68" rx="2" fill="#f59e0b"/>
  <text x="134" y="278" font-family="system-ui,sans-serif" font-size="12" font-weight="600" fill="#0c1a2e" opacity="0.8">Global Chip Shortage Eases as TSMC Expands</text>
  <text x="134" y="296" font-family="system-ui,sans-serif" font-size="9"  fill="#64748b">FT · 5h ago</text>
  <rect x="356" y="286" width="56" height="18" rx="9" fill="#fef9c3" stroke="#fde68a" stroke-width="1"/>
  <text x="384" y="298" text-anchor="middle" font-family="system-ui,sans-serif" font-size="8" font-weight="600" fill="#b45309">MIXED</text>
  <text x="134" y="316" font-family="system-ui,sans-serif" font-size="9"  fill="#94a3b8" opacity="0.7">Supply chain normalises while geopolitical tensions remain key risk factor…</text>

  <!-- Story 4 -->
  <rect x="116" y="336" width="406" height="68" rx="16" fill="white" stroke="#e0f2fe" stroke-width="1"/>
  <rect x="116" y="336" width="5"   height="68" rx="2" fill="#f43f5e"/>
  <text x="134" y="356" font-family="system-ui,sans-serif" font-size="12" font-weight="600" fill="#0c1a2e" opacity="0.8">FTC Investigates OpenAI Data Practices</text>
  <text x="134" y="374" font-family="system-ui,sans-serif" font-size="9"  fill="#64748b">WSJ · 7h ago</text>
  <rect x="354" y="364" width="70" height="18" rx="9" fill="#fff1f2" stroke="#fecdd3" stroke-width="1"/>
  <text x="389" y="376" text-anchor="middle" font-family="system-ui,sans-serif" font-size="8" font-weight="600" fill="#f43f5e">BEARISH</text>
  <text x="134" y="394" font-family="system-ui,sans-serif" font-size="9"  fill="#94a3b8" opacity="0.7">Regulatory scrutiny intensifies across the AI sector with bipartisan…</text>

  <!-- Topic tags -->
  <rect x="116" y="414" width="406" height="52" rx="14" fill="#f0f9ff" stroke="#bae6fd" stroke-width="1"/>
  <text x="132" y="432" font-family="system-ui,sans-serif" font-size="8" fill="#0369a1" letter-spacing="2" opacity="0.7">TOP TOPICS</text>
  <rect x="132" y="438" width="44" height="18" rx="9" fill="#cffafe" stroke="#67e8f9" stroke-width="1"/>
  <text x="154" y="451" text-anchor="middle" font-family="system-ui,sans-serif" font-size="8" font-weight="600" fill="#0e7490">AI/ML</text>
  <rect x="184" y="438" width="58" height="18" rx="9" fill="#dbeafe" stroke="#93c5fd" stroke-width="1"/>
  <text x="213" y="451" text-anchor="middle" font-family="system-ui,sans-serif" font-size="8" font-weight="600" fill="#1d4ed8">MARKETS</text>
  <rect x="250" y="438" width="58" height="18" rx="9" fill="#faf5ff" stroke="#d8b4fe" stroke-width="1"/>
  <text x="279" y="451" text-anchor="middle" font-family="system-ui,sans-serif" font-size="8" font-weight="600" fill="#7c3aed">POLICY</text>
  <rect x="316" y="438" width="58" height="18" rx="9" fill="#fef9c3" stroke="#fde68a" stroke-width="1"/>
  <text x="345" y="451" text-anchor="middle" font-family="system-ui,sans-serif" font-size="8" font-weight="600" fill="#854d0e">FINANCE</text>
  <rect x="382" y="438" width="58" height="18" rx="9" fill="#f0fdf4" stroke="#86efac" stroke-width="1"/>
  <text x="411" y="451" text-anchor="middle" font-family="system-ui,sans-serif" font-size="8" font-weight="600" fill="#166534">CHIPS</text>

  <!-- ── Right: Sentiment panel ── -->
  <rect x="538" y="18"  width="244" height="234" rx="26" fill="white" opacity="0.72" filter="url(#s2)"/>
  <text x="560" y="52"  font-family="system-ui,sans-serif" font-size="12" font-weight="700" fill="#0c1a2e" opacity="0.8">Sentiment</text>
  <text x="560" y="67"  font-family="system-ui,sans-serif" font-size="8"  fill="#06b6d4" letter-spacing="2">TODAY · 247 ARTICLES</text>

  <!-- Positive bar -->
  <text x="560" y="95"  font-family="system-ui,sans-serif" font-size="10" fill="#0c1a2e" opacity="0.65">Positive</text>
  <rect x="560" y="100" width="160" height="8" rx="4" fill="#e0f2fe"/>
  <rect x="560" y="100" width="102" height="8" rx="4" fill="url(#barPos)"/>
  <text x="728" y="109" font-family="system-ui,sans-serif" font-size="10" font-weight="600" fill="#06b6d4">44%</text>

  <!-- Neutral bar -->
  <text x="560" y="130" font-family="system-ui,sans-serif" font-size="10" fill="#0c1a2e" opacity="0.65">Neutral</text>
  <rect x="560" y="135" width="160" height="8" rx="4" fill="#f1f5f9"/>
  <rect x="560" y="135" width="80"  height="8" rx="4" fill="#94a3b8"/>
  <text x="728" y="144" font-family="system-ui,sans-serif" font-size="10" font-weight="600" fill="#64748b">33%</text>

  <!-- Negative bar -->
  <text x="560" y="165" font-family="system-ui,sans-serif" font-size="10" fill="#0c1a2e" opacity="0.65">Negative</text>
  <rect x="560" y="170" width="160" height="8" rx="4" fill="#fee2e2"/>
  <rect x="560" y="170" width="55"  height="8" rx="4" fill="url(#barNeg)"/>
  <text x="728" y="179" font-family="system-ui,sans-serif" font-size="10" font-weight="600" fill="#f43f5e">23%</text>

  <!-- Score chip -->
  <rect x="560" y="196" width="200" height="36" rx="12" fill="url(#cyanGrad)" opacity="0.12" stroke="#a5f3fc" stroke-width="1"/>
  <text x="660" y="209" text-anchor="middle" font-family="system-ui,sans-serif" font-size="9"  fill="#0e7490" letter-spacing="1">OVERALL SCORE</text>
  <text x="660" y="225" text-anchor="middle" font-family="system-ui,sans-serif" font-size="14" font-weight="800" fill="#06b6d4">MODERATELY POSITIVE</text>

  <!-- ── Right: Agent log ── -->
  <rect x="538" y="262" width="244" height="220" rx="26" fill="white" opacity="0.72" filter="url(#s2)"/>
  <text x="560" y="292" font-family="system-ui,sans-serif" font-size="12" font-weight="700" fill="#0c1a2e" opacity="0.8">Agent Log</text>
  <text x="560" y="307" font-family="system-ui,sans-serif" font-size="8"  fill="#06b6d4" letter-spacing="2">RSS · PLOTLY · FASTAPI</text>

  <rect x="552" y="316" width="222" height="26" rx="8" fill="#f0f9ff"/>
  <text x="565" y="333" font-family="monospace,monospace" font-size="9" fill="#0e7490">✓  Fetched 247 articles</text>

  <rect x="552" y="348" width="222" height="26" rx="8" fill="#f0f9ff"/>
  <text x="565" y="365" font-family="monospace,monospace" font-size="9" fill="#0e7490">✓  Ranked by relevance</text>

  <rect x="552" y="380" width="222" height="26" rx="8" fill="#f0f9ff"/>
  <text x="565" y="397" font-family="monospace,monospace" font-size="9" fill="#0e7490">✓  Sentiment analysed</text>

  <rect x="552" y="412" width="222" height="26" rx="8" fill="#ecfeff" stroke="#a5f3fc" stroke-width="1"/>
  <circle cx="566" cy="425" r="4" fill="#22d3ee" opacity="0.6"/>
  <text x="576" y="429" font-family="monospace,monospace" font-size="9" fill="#06b6d4">  Visualisations ready</text>

  <text x="560" y="460" font-family="system-ui,sans-serif" font-size="9" fill="#94a3b8">Updated 30s ago · Next run in 5m</text>
</svg>
